<svg xmlns="http://www.w3.org/2000/svg" viewBox="0 0 64 64"><circle cx="37.042" cy="20.974" r="15" fill="#f7b546"/><circle cx="37.042" cy="20.974" r="11.5" fill="#f4a033"/><path fill="#ffcc5c" d="M24.436 29.099c.191.296.394.583.604.863L45.085 8.54a14.94 14.94 0 0 0-.847-.605L24.436 29.099zM23.574 27.581L42.74 7.098a14.89 14.89 0 0 0-3.648-.98L22.35 24.011a14.88 14.88 0 0 0 1.224 3.57z"/><path fill="#f29525" d="M28.031 20.974c0-5.93 4.49-10.809 10.255-11.43-.409-.044-.824-.07-1.245-.07-6.351 0-11.5 5.149-11.5 11.5s5.149 11.5 11.5 11.5c.421 0 .835-.026 1.245-.07-5.765-.62-10.255-5.499-10.255-11.43z"/><path fill="#f7b546" d="M27.478 27.358l1.57-1.678a11.138 11.138 0 0 1-.416-1.065l-1.709 1.827c.171.314.357.619.555.916zM28.031 20.974c0-1.296.226-2.537.621-3.7l-3.09 3.303c-.005.133-.02.263-.02.397 0 1.334.239 2.61.657 3.801l1.969-2.105a11.55 11.55 0 0 1-.137-1.696zM38.287 9.544c-.409-.044-.824-.07-1.245-.07-.387 0-.769.021-1.146.058l-.77.823a11.474 11.474 0 0 1 3.161-.811z"/><path fill="#f29525" d="M40.819 20.214c.434-.639.688-1.41.688-2.239 0-2.206-1.794-4-4-4h-3a1 1 0 0 0-1 1v13.5a.5.5 0 0 0 1 0v-.5h2v.5a.5.5 0 0 0 1 0v-.5h2c2.206 0 4-1.794 4-4-.001-1.744-1.129-3.215-2.688-3.761zm-5.313-4.239h2c1.103 0 2 .897 2 2s-.897 2-2 2h-2v-4zm4 10h-4v-4h4c1.103 0 2 .897 2 2s-.897 2-2 2z"/><path fill="#f7b546" d="M33.506 19.405v1.51l2-2.138v-1.509zM36.716 15.975h.79c.19 0 .369.035.543.084l1.439-1.538a3.964 3.964 0 0 0-1.022-.417l-1.75 1.871zM37.006 12.975a.5.5 0 0 0-.5.5v.285l.697-.744a.48.48 0 0 0-.197-.041zM34.506 13.975v-.5a.5.5 0 0 0-1 0v1a.5.5 0 0 0 .5.5h1.363l.936-1h-1.799z"/><path fill="#024665" d="M37.042 4.975c-8.822 0-16 7.178-16 16s7.178 16 16 16 16-7.178 16-16-7.178-16-16-16zm0 30c-7.72 0-14-6.28-14-14s6.28-14 14-14 14 6.28 14 14-6.28 14-14 14z"/><path fill="#024665" d="M37.042 8.975c-6.617 0-12 5.383-12 12s5.383 12 12 12 12-5.383 12-12-5.383-12-12-12zm0 23c-6.065 0-11-4.935-11-11s4.935-11 11-11 11 4.935 11 11-4.935 11-11 11z"/><path fill="#024665" d="M39.819 20.214c.434-.639.688-1.41.688-2.239 0-2.206-1.794-4-4-4v-.5a.5.5 0 0 0-1 0v.5h-2v-.5a.5.5 0 0 0-1 0v.514a.993.993 0 0 0-.072 1.976v10.021a.994.994 0 0 0 .072 1.976v.514a.5.5 0 0 0 1 0v-.5h2v.5a.5.5 0 0 0 1 0v-.5h2c2.206 0 4-1.794 4-4-.001-1.745-1.129-3.216-2.688-3.762zm-1.313-2.239c0 1.103-.897 2-2 2h-2v-4h2c1.103 0 2 .897 2 2zm0 8h-4v-4h4c1.103 0 2 .897 2 2s-.897 2-2 2z"/><path fill="#f0caaf" d="M30.982 48.975h9.529a2.5 2.5 0 1 0 0-5H31.83a6.498 6.498 0 0 0-6.319-5H16.49l-.216 12.752 16.877 5.71c1.65.508 3.553.254 4.949-.761l16.37-8.883.381-.254c1.015-.508 1.396-1.777 1.015-2.792-.888-2.03-2.792-1.396-2.792-1.396l-11.477 5.375"/><path fill="#e2b698" d="M40.511 46.75H33a2 2 0 0 0-2 2v.225h9.346c1.195 0 2.311-.767 2.595-1.928a2.413 2.413 0 0 0-.202-1.685 2.492 2.492 0 0 1-2.228 1.388z"/><path fill="#e2b698" d="M55.739 46.656a2.364 2.364 0 0 0 .127-1.908c-.235-.536-.54-.883-.863-1.108-.026.775-.422 1.535-1.152 1.9l-.381.254-16.37 8.883-.012.009c-.66.478-1.51.607-2.282.346l-12.908-4.367a4 4 0 0 1-2.717-3.857l.132-7.832H16.49l-.216 12.752 16.877 5.71c1.65.508 3.553.254 4.949-.761l16.37-8.883.381-.254c.181-.09.334-.211.474-.344.025-.024.051-.047.075-.073.133-.142.249-.296.339-.467z"/><path fill="#617e95" d="M11.579 36.975h4.432v17h-9v-17h4.568z"/><path fill="#4c6d86" d="M12.5 36.975v11a3 3 0 0 1-3 3H7.011v3h9v-17H12.5z"/><path fill="#024665" d="M33.435 27.975h-.857a1 1 0 01-.143-1.99v-10.02a1 1 0 01.143-1.99h.857a1 1 0 011 1v12a1 1 0 01-1 1zM16.011 54.975h-9a1 1 0 01-1-1v-17a1 1 0 011-1h9a1 1 0 011 1v17a1 1 0 01-1 1zm-8-2h7v-15h-7v15z"/><path fill="#024665" d="M34.863 58.192a6.345 6.345 0 0 1-1.859-.277l-16.89-5.714a.5.5 0 1 1 .321-.947l16.877 5.71c1.531.471 3.258.208 4.495-.691l16.767-9.148c.789-.398 1.135-1.372.824-2.2-.667-1.523-2.018-1.146-2.169-1.096l-11.42 5.353a.5.5 0 0 1-.424-.906l11.477-5.375c.863-.291 2.615-.289 3.462 1.648.503 1.34-.051 2.84-1.25 3.439l-.327.223-16.409 8.906c-.959.7-2.204 1.075-3.475 1.075z"/><path fill="#024665" d="M40.511 49.475h-9.528a.5.5 0 0 1 0-1h9.528c1.103 0 2-.897 2-2s-.897-2-2-2H31.83a.499.499 0 0 1-.486-.385 5.973 5.973 0 0 0-5.833-4.615H16.49a.5.5 0 0 1 0-1h9.021a6.968 6.968 0 0 1 6.704 5h8.296c1.654 0 3 1.346 3 3s-1.346 3-3 3z"/></svg>